# xmcd
#
# Track frame offsets:
#	150
#	20638
#	44443
#	58867
#	80891
#	101812
#	121605
#	140668
#	163734
#	192930
#	205987
#	220053
#	244555
#	262220
#	279470
#	296476
#
# Disc length: 4227
#
# Revision: 1
# Processed by: cddbd v1.5.1PL0 Copyright (c) Steve Scherf et al.
# Submitted via: CDex 1.50
# Normalized: r0:DSETVAR2
#
DISCID=fc108110
DTITLE=Various Artist - Caipilation - Vol. 3
DYEAR=2003
DGENRE=Jazz
TTITLE0=Jazzamor - Way Back
TTITLE1=RJD2 - Ghostwriter
TTITLE2=Henri Salvador - Jazz Mediterranée (Remix by Koop)
TTITLE3=2 Men Ahead - Brazilian Angel
TTITLE4=Los Chicharrons - Chicharrons N Boogaloo
TTITLE5=Chico Hamilton - For Mods Only
TTITLE6=Arling and Cameron - W.e.e.k.e.n.d.
TTITLE7=Victor Davies - Sound Of The Samba
TTITLE8=Project 2000 - Club De Ville
TTITLE9=Black Mighty Orchestra - Dona Flor
TTITLE10=Wes Montgomery - California Dreaming
TTITLE11=Llorca with Nicole Graham - Indigo Blues (Minus8 Remix)
TTITLE12=Strike Boys - Vida La Revolucion
TTITLE13=Nightmares On Wax - Bleu My Mind
TTITLE14=Röyksopp - So Easy
TTITLE15=Lenny Costanza and The Les Battersby Cubano Orchestra - Can't Get You Out Of My Bed
EXTD=YEAR: 2003
EXTT0=
EXTT1=
EXTT2=
EXTT3=
EXTT4=
EXTT5=
EXTT6=
EXTT7=
EXTT8=
EXTT9=
EXTT10=
EXTT11=
EXTT12=
EXTT13=
EXTT14=
EXTT15=
PLAYORDER=
